<svg width="1251" height="784" viewBox="0 0 1251 784" fill="none" xmlns="http://www.w3.org/2000/svg">
<rect x="3" width="1247" height="784" fill="white"/>
<circle cx="625" cy="238" r="218" fill="black"/>
<path d="M888 185L964 206.067V264L888 238.983V185Z" fill="black"/>
<path d="M854.026 363.647L913.449 415.757L888.269 467.783L830.563 412.126L854.026 363.647Z" fill="black"/>
<path d="M399.243 363.647L339.82 415.757L365 467.783L422.706 412.126L399.243 363.647Z" fill="black"/>
<path d="M978.664 468.735L1053.74 534.573L1021.93 600.304L949.02 529.985L978.664 468.735Z" fill="black"/>
<path d="M274.604 468.735L199.527 534.573L231.34 600.304L304.248 529.985L274.604 468.735Z" fill="black"/>
<path d="M1140.29 600.096L1235.91 683.949L1195.39 767.667L1102.53 678.105L1140.29 600.096Z" fill="black"/>
<path d="M112.98 600.096L17.3587 683.949L57.8771 767.667L150.736 678.105L112.98 600.096Z" fill="black"/>
<path d="M362 185L286 206.067V264L362 238.983V185Z" fill="black"/>
<path d="M1009 219L1092 242.2V306L1009 278.45V219Z" fill="black"/>
<path d="M241 219L158 242.2V306L241 278.45V219Z" fill="black"/>
<path d="M1150 253L1250 280.467V356L1150 323.383V253Z" fill="black"/>
<path d="M100 253L-2.38419e-06 280.467V356L100 323.383V253Z" fill="black"/>
<path d="M533.742 485H719.258L748 601H505L533.742 485Z" fill="black"/>
<path d="M500.914 629H752.086L791 784H462L500.914 629Z" fill="black"/>
<path d="M709.491 289.679C707.965 289.708 706.449 289.428 705.035 288.855L606.515 288.987C604.994 289.028 603.48 288.763 602.062 288.209C600.645 287.655 599.354 286.823 598.263 285.761C597.173 284.7 596.306 283.431 595.714 282.028C595.122 280.626 594.817 279.12 594.817 277.598C594.817 276.076 595.122 274.57 595.714 273.167C596.306 271.765 597.173 270.496 598.263 269.435C599.354 268.373 600.645 267.541 602.062 266.987C603.48 266.433 604.994 266.169 606.515 266.21L731.384 266.045C736.285 247.354 736.203 227.706 731.145 209.057H709.524C708.029 209.057 706.549 208.763 705.168 208.191C703.787 207.619 702.531 206.78 701.474 205.723C700.417 204.666 699.579 203.411 699.007 202.03C698.435 200.649 698.141 199.168 698.141 197.673C698.141 196.178 698.435 194.698 699.007 193.317C699.579 191.935 700.417 190.68 701.474 189.623C702.531 188.566 703.787 187.728 705.168 187.155C706.549 186.583 708.029 186.288 709.524 186.288H722.102C712.721 168.682 698.732 153.958 681.629 143.691C664.526 133.424 644.954 128 625.007 128C605.06 128 585.488 133.424 568.385 143.691C551.282 153.958 537.291 168.682 527.911 186.288H533.628H552.399H552.762H655.491C656.986 186.288 658.466 186.583 659.847 187.155C661.228 187.728 662.483 188.566 663.54 189.623C664.597 190.68 665.435 191.935 666.007 193.317C666.579 194.698 666.874 196.178 666.874 197.673C666.874 199.168 666.579 200.649 666.007 202.03C665.435 203.411 664.597 204.666 663.54 205.723C662.483 206.78 661.228 207.619 659.847 208.191C658.466 208.763 656.986 209.057 655.491 209.057H533.587H522.113C520.951 209.057 519.847 209.115 518.818 209.205C513.727 228.067 513.727 247.941 518.818 266.803C519.897 266.893 521.009 266.943 522.178 266.943H552.449C553.943 266.943 555.424 267.238 556.805 267.81C558.186 268.382 559.441 269.22 560.498 270.277C561.555 271.334 562.394 272.589 562.966 273.97C563.538 275.351 563.832 276.832 563.832 278.327C563.832 279.822 563.538 281.303 562.966 282.684C562.394 284.065 561.555 285.32 560.498 286.377C559.441 287.434 558.186 288.272 556.805 288.845C555.424 289.417 553.943 289.712 552.449 289.712H527.87C537.25 307.318 551.24 322.042 568.343 332.309C585.446 342.576 605.018 348 624.965 348C644.912 348 664.484 342.576 681.587 332.309C698.69 322.042 712.68 307.318 722.06 289.712L709.491 289.679Z" fill="white"/>
</svg>
