<svg width="163" height="163" viewBox="0 0 163 163" fill="none" xmlns="http://www.w3.org/2000/svg">
<path d="M144.1 119.789C142.97 119.811 141.846 119.603 140.798 119.179L67.8044 119.277C66.6774 119.307 65.5553 119.111 64.5052 118.7C63.455 118.29 62.4983 117.673 61.6904 116.887C60.8825 116.1 60.2403 115.16 59.8018 114.121C59.3633 113.082 59.1373 111.966 59.1373 110.839C59.1373 109.711 59.3633 108.595 59.8018 107.556C60.2403 106.517 60.8825 105.577 61.6904 104.79C62.4983 104.004 63.455 103.387 64.5052 102.977C65.5553 102.566 66.6774 102.371 67.8044 102.401L160.321 102.279C163.952 88.4308 163.891 73.8731 160.144 60.0562H144.124C143.017 60.0562 141.921 59.8381 140.897 59.4143C139.874 58.9904 138.944 58.3689 138.161 57.5857C137.377 56.8024 136.757 55.8726 136.333 54.8493C135.909 53.8259 135.691 52.7289 135.691 51.6212C135.691 50.5135 135.909 49.4171 136.333 48.3937C136.757 47.3704 137.377 46.44 138.161 45.6568C138.944 44.8735 139.874 44.2527 140.897 43.8288C141.921 43.4049 143.017 43.1863 144.124 43.1863H153.444C146.494 30.1418 136.128 19.2325 123.457 11.6255C110.785 4.01847 96.2843 0 81.5051 0C66.7259 0 52.2248 4.01847 39.5533 11.6255C26.8817 19.2325 16.5159 30.1418 9.56604 43.1863H13.8016H27.7096H27.9784H104.091C105.199 43.1863 106.295 43.4049 107.318 43.8288C108.341 44.2527 109.272 44.8735 110.055 45.6568C110.838 46.44 111.459 47.3704 111.883 48.3937C112.307 49.4171 112.525 50.5135 112.525 51.6212C112.525 52.7289 112.307 53.8259 111.883 54.8493C111.459 55.8726 110.838 56.8024 110.055 57.5857C109.272 58.3689 108.341 58.9904 107.318 59.4143C106.295 59.8381 105.199 60.0562 104.091 60.0562H13.7712H5.26972C4.40925 60.0562 3.59148 60.0987 2.82865 60.1658C-0.942883 74.1406 -0.942883 88.8654 2.82865 102.84C3.6281 102.907 4.45201 102.944 5.31859 102.944H27.746C28.8535 102.944 29.9505 103.162 30.9737 103.586C31.997 104.01 32.9267 104.631 33.7098 105.414C34.493 106.198 35.1144 107.127 35.5382 108.151C35.9621 109.174 36.1801 110.271 36.1801 111.379C36.1801 112.486 35.9621 113.584 35.5382 114.607C35.1144 115.63 34.493 116.56 33.7098 117.343C32.9267 118.126 31.997 118.747 30.9737 119.171C29.9505 119.595 28.8535 119.814 27.746 119.814H9.53565C16.4855 132.858 26.8507 143.768 39.5223 151.375C52.1938 158.982 66.6949 163 81.4741 163C96.2533 163 110.754 158.982 123.426 151.375C136.098 143.768 146.463 132.858 153.413 119.814L144.1 119.789Z" fill="black"/>
</svg>
