<svg width="73" height="63" viewBox="0 0 73 63" fill="none" xmlns="http://www.w3.org/2000/svg">
<path d="M13.9169 3.89069C10.9509 6.85765 8.5981 10.38 6.9929 14.2567C5.38769 18.1334 4.5615 22.2885 4.5615 26.4846C4.5615 30.6807 5.38769 34.8358 6.9929 38.7125C8.5981 42.5891 10.9509 46.1115 13.9169 49.0785C14.3324 49.5089 14.5624 50.0854 14.5572 50.6838C14.552 51.2822 14.3121 51.8546 13.8891 52.2778C13.4661 52.7009 12.894 52.9409 12.2958 52.9461C11.6977 52.9513 11.1215 52.7213 10.6912 52.3055C7.30169 48.9148 4.61297 44.8892 2.77856 40.4589C0.944158 36.0285 0 31.28 0 26.4846C0 21.6892 0.944158 16.9407 2.77856 12.5103C4.61297 8.07994 7.30169 4.05443 10.6912 0.663636C11.1215 0.247913 11.6977 0.0178786 12.2958 0.0230784C12.894 0.0282782 13.4661 0.268297 13.8891 0.691438C14.3121 1.11458 14.552 1.68699 14.5572 2.28537C14.5624 2.88376 14.3324 3.46026 13.9169 3.89069ZM23.5985 13.5764C20.1771 17.0002 18.2551 21.6433 18.2551 26.4846C18.2551 31.3259 20.1771 35.969 23.5985 39.3928C23.8106 39.605 23.9788 39.8569 24.0936 40.1341C24.2084 40.4114 24.2675 40.7085 24.2675 41.0086C24.2675 41.3087 24.2084 41.6058 24.0936 41.8831C23.9788 42.1603 23.8106 42.4122 23.5985 42.6244C23.3864 42.8366 23.1346 43.0049 22.8574 43.1198C22.5803 43.2346 22.2833 43.2937 21.9833 43.2937C21.6834 43.2937 21.3864 43.2346 21.1092 43.1198C20.8321 43.0049 20.5803 42.8366 20.3682 42.6244C18.2493 40.5051 16.5684 37.9889 15.4216 35.2196C14.2748 32.4503 13.6845 29.4821 13.6845 26.4846C13.6845 23.487 14.2748 20.5189 15.4216 17.7496C16.5684 14.9803 18.2493 12.4641 20.3682 10.3448C20.7966 9.91625 21.3776 9.6755 21.9833 9.6755C22.5891 9.6755 23.1701 9.91625 23.5985 10.3448C24.0268 10.7733 24.2675 11.3545 24.2675 11.9606C24.2675 12.5666 24.0268 13.1479 23.5985 13.5764ZM49.4038 10.3448C49.6157 10.1323 49.8675 9.96363 50.1446 9.84857C50.4218 9.73352 50.7189 9.6743 51.0189 9.6743C51.319 9.6743 51.6161 9.73352 51.8933 9.84857C52.1704 9.96363 52.4222 10.1323 52.6341 10.3448C54.753 12.4641 56.4339 14.9803 57.5807 17.7496C58.7275 20.5189 59.3178 23.487 59.3178 26.4846C59.3178 29.4821 58.7275 32.4503 57.5807 35.2196C56.4339 37.9889 54.753 40.5051 52.6341 42.6244C52.422 42.8366 52.1702 43.0049 51.893 43.1198C51.6159 43.2346 51.3189 43.2937 51.0189 43.2937C50.719 43.2937 50.422 43.2346 50.1449 43.1198C49.8677 43.0049 49.6159 42.8366 49.4038 42.6244C49.1917 42.4122 49.0235 42.1603 48.9087 41.8831C48.7939 41.6058 48.7348 41.3087 48.7348 41.0086C48.7348 40.7085 48.7939 40.4114 48.9087 40.1341C49.0235 39.8569 49.1917 39.605 49.4038 39.3928C52.8252 35.969 54.7472 31.3259 54.7472 26.4846C54.7472 21.6433 52.8252 17.0002 49.4038 13.5764C49.1914 13.3644 49.0228 13.1126 48.9078 12.8353C48.7928 12.558 48.7336 12.2608 48.7336 11.9606C48.7336 11.6604 48.7928 11.3632 48.9078 11.0859C49.0228 10.8086 49.1914 10.5568 49.4038 10.3448ZM59.0854 0.668201C59.5132 0.240352 60.0933 0 60.6982 0C61.3031 0 61.8833 0.240352 62.3111 0.668201C69.1551 7.51604 73 16.8032 73 26.4869C73 36.1706 69.1551 45.4577 62.3111 52.3055C61.8808 52.7213 61.3046 52.9513 60.7065 52.9461C60.1083 52.9409 59.5362 52.7009 59.1132 52.2778C58.6902 51.8546 58.4503 51.2822 58.4451 50.6838C58.4399 50.0854 58.6699 49.5089 59.0854 49.0785C62.0514 46.1115 64.4042 42.5891 66.0094 38.7125C67.6146 34.8358 68.4408 30.6807 68.4408 26.4846C68.4408 22.2885 67.6146 18.1334 66.0094 14.2567C64.4042 10.38 62.0514 6.85765 59.0854 3.89069C58.6577 3.46271 58.4175 2.88232 58.4175 2.27716C58.4175 1.672 58.6577 1.09161 59.0854 0.663636V0.668201ZM27.3762 26.4846C27.3766 24.7773 27.8556 23.1043 28.7588 21.6557C29.6619 20.2071 30.9531 19.0409 32.4855 18.2895C34.0179 17.5382 35.7303 17.2319 37.428 17.4053C39.1258 17.5787 40.7409 18.225 42.0899 19.2706C43.439 20.3163 44.4678 21.7195 45.0597 23.3208C45.6516 24.9222 45.7827 26.6575 45.4383 28.3296C45.0938 30.0018 44.2875 31.5438 43.1109 32.7805C41.9344 34.0172 40.4348 34.8991 38.7824 35.3259V60.7178C38.7824 61.3231 38.542 61.9036 38.1142 62.3316C37.6864 62.7596 37.1062 63 36.5011 63C35.8961 63 35.3159 62.7596 34.8881 62.3316C34.4602 61.9036 34.2199 61.3231 34.2199 60.7178V35.3259C32.2608 34.8198 30.5254 33.6767 29.2865 32.0763C28.0477 30.4758 27.3757 28.5088 27.3762 26.4846Z" fill="#F5ED47"/>
</svg>
