<svg width="44" height="46" viewBox="0 0 44 46" fill="none" xmlns="http://www.w3.org/2000/svg">
<path d="M22.0924 45.6704L15.9302 27.9876L3.69756 13.8096L22.0924 17.3142L40.4873 13.8096L28.2547 27.9876L22.0924 45.6704Z" fill="#E4FF41"/>
<path d="M32.7127 0.154297L36.6544 6.98162L28.7709 6.98162L32.7127 0.154297Z" fill="url(#paint0_linear_71_128)"/>
<path d="M11.4724 0.154541L15.4142 6.98186L7.53069 6.98186L11.4724 0.154541Z" fill="url(#paint1_linear_71_128)"/>
<path d="M15.0244 8.70679C15.5767 8.70679 16.0244 9.1545 16.0244 9.70679L16.0244 24.4295L7.663 24.4295L7.663 9.70679C7.663 9.1545 8.11072 8.70679 8.663 8.70679L15.0244 8.70679Z" fill="#4B4B4B"/>
<path d="M16.0249 22.5515L16.0249 26.3178C16.0249 28.6269 14.153 30.4988 11.8438 30.4988V30.4988C9.5347 30.4988 7.66277 28.6269 7.66277 26.3178L7.66277 22.5515L16.0249 22.5515Z" fill="#4B4B4B"/>
<path d="M36.2642 8.7063C36.8164 8.7063 37.2642 9.15401 37.2642 9.7063L37.2642 24.429L28.9028 24.429L28.9027 9.7063C28.9027 9.15401 29.3505 8.7063 29.9028 8.7063L36.2642 8.7063Z" fill="#4B4B4B"/>
<path d="M37.2642 22.5515L37.2642 26.3178C37.2642 28.6269 35.3922 30.4988 33.0831 30.4988V30.4988C30.774 30.4988 28.902 28.6269 28.902 26.3178L28.902 22.5515L37.2642 22.5515Z" fill="#4B4B4B"/>
<defs>
<linearGradient id="paint0_linear_71_128" x1="32.7127" y1="0.154297" x2="32.7127" y2="9.25739" gradientUnits="userSpaceOnUse">
<stop stop-color="#DEC800" stop-opacity="0.41"/>
<stop offset="1" stop-color="#E4FF41"/>
</linearGradient>
<linearGradient id="paint1_linear_71_128" x1="11.4724" y1="0.154541" x2="11.4724" y2="9.25764" gradientUnits="userSpaceOnUse">
<stop stop-color="#DEC800" stop-opacity="0.41"/>
<stop offset="1" stop-color="#E4FF41"/>
</linearGradient>
</defs>
</svg>
